<svg width="85" height="90" viewBox="0 0 85 90" fill="none" xmlns="http://www.w3.org/2000/svg">
<g id="Group_3.svg" clip-path="url(#clip0_115_52)">
<g id="Group" filter="url(#filter0_d_115_52)">
<path id="Vector" d="M71.3407 28.6493L42.8185 12.2207C42.318 11.9324 41.7287 11.9324 41.2284 12.2207L12.7061 28.6493C11.4023 29.4004 11.4004 31.548 12.7061 32.3L22.4957 37.9387V53.5441C22.4957 53.9126 22.5824 54.274 22.7465 54.5904C26.1626 61.1727 35.3007 63.2817 42.024 63.2817C44.2191 63.2817 46.4153 63.0732 48.5065 62.6576C48.6719 62.8967 48.8523 63.1214 49.0464 63.3297L46.313 70.5597C45.804 71.9056 46.6631 73.4153 47.941 73.4153H57.409C58.6852 73.4153 59.5468 71.9075 59.037 70.5597L56.3035 63.3295C57.4374 62.1132 58.0711 60.3879 57.994 58.5532C59.4208 57.4007 60.532 56.0705 61.3001 54.5903C61.7467 53.73 61.4634 54.4573 61.551 37.9387L71.3406 32.3C72.6447 31.549 72.6464 29.4013 71.3407 28.6493ZM26.0462 52.9401V39.9837L41.2284 48.7283C41.7286 49.0165 42.318 49.0166 42.8185 48.7283L51.018 44.0056V53.0325C48.9199 53.8244 47.3936 56.0768 47.3516 58.7398C38.5383 60.325 29.0222 57.7676 26.0462 52.9401ZM52.6749 56.8106C53.6538 56.8106 54.4501 57.7265 54.4501 58.8521C54.4501 59.9778 53.6538 60.8936 52.6749 60.8936C51.6959 60.8936 50.8996 59.9778 50.8996 58.8521C50.8996 57.7265 51.6959 56.8106 52.6749 56.8106ZM54.7013 69.332H50.6485L52.3014 64.96C52.5794 64.9823 52.7704 64.9823 53.0484 64.96L54.7013 69.332ZM58.0006 52.9412C57.6259 53.5522 57.1453 54.1321 56.5665 54.6772C56.0164 53.9994 55.3348 53.4655 54.5685 53.1289V41.9606L58.0007 39.9837L58.0006 52.9412ZM52.8029 38.4109L41.1226 30.8076C40.2697 30.2523 39.1864 30.5974 38.7033 31.5787C38.2203 32.5599 38.5204 33.8056 39.3737 34.361L48.9789 40.6137L42.0234 44.6196L17.4653 30.4746L42.0234 16.3294L66.5816 30.4746L52.8029 38.4109Z" fill="#EB16EF"/>
</g>
</g>
<defs>
<filter id="filter0_d_115_52" x="-0.272461" y="2.00446" width="84.5918" height="85.4109" filterUnits="userSpaceOnUse" color-interpolation-filters="sRGB">
<feFlood flood-opacity="0" result="BackgroundImageFix"/>
<feColorMatrix in="SourceAlpha" type="matrix" values="0 0 0 0 0 0 0 0 0 0 0 0 0 0 0 0 0 0 127 0" result="hardAlpha"/>
<feOffset dy="2"/>
<feGaussianBlur stdDeviation="6"/>
<feColorMatrix type="matrix" values="0 0 0 0 0.921569 0 0 0 0 0.0862745 0 0 0 0 0.937255 0 0 0 1 0"/>
<feBlend mode="normal" in2="BackgroundImageFix" result="effect1_dropShadow_115_52"/>
<feBlend mode="normal" in="SourceGraphic" in2="effect1_dropShadow_115_52" result="shape"/>
</filter>
<clipPath id="clip0_115_52">
<rect width="84.0467" height="89.9159" fill="white"/>
</clipPath>
</defs>
</svg>
