<svg width="85" height="80" viewBox="0 0 85 80" fill="none" xmlns="http://www.w3.org/2000/svg">
<g id="Group_2.svg" clip-path="url(#clip0_115_48)">
<g id="Group" filter="url(#filter0_d_115_48)">
<path id="Vector" d="M67.653 23.7872C66.7192 23.7872 65.7987 24.1677 64.985 24.8528V23.7872C64.985 17.4694 62.7437 14.2724 58.3147 14.2724H27.6308C23.2017 14.2724 20.9605 17.4694 20.9605 23.7872V24.8528C20.1466 24.1677 19.2261 23.8062 18.2924 23.7872C15.344 23.7872 12.9561 27.1937 12.9561 31.3992V46.623C12.9561 50.8288 15.344 54.235 18.2924 54.235H20.9605V58.0409C20.9605 59.0876 21.5608 59.9439 22.2946 59.9439C23.0284 59.9439 23.6287 59.0876 23.6287 58.0409V54.235H62.3169V58.0409C62.3169 59.0876 62.9172 59.9439 63.651 59.9439C64.3846 59.9439 64.985 59.0876 64.985 58.0409V54.235H67.6398C70.5881 54.235 72.9894 50.8288 72.9894 46.623V31.3992C72.9894 27.1937 70.6015 23.7872 67.653 23.7872ZM23.6286 23.7872C23.6286 19.5817 24.6692 18.0782 27.6308 18.0782H58.3145C61.2628 18.0782 62.3167 19.5817 62.3167 23.7872V37.1082H23.6286V23.7872ZM70.3213 46.623C70.3213 48.7353 69.1072 50.4288 67.6398 50.4288H18.2924C16.825 50.4288 15.6242 48.7162 15.6242 46.623V31.3992C15.6242 29.306 16.825 27.5933 18.2924 27.5933C19.7598 27.5933 20.9605 29.306 20.9605 31.3992V40.914H64.985V31.3992C64.985 29.306 66.1856 27.5933 67.653 27.5933C69.1206 27.5933 70.3211 29.306 70.3211 31.3992L70.3213 46.623Z" fill="#EB16EF"/>
</g>
</g>
<defs>
<filter id="filter0_d_115_48" x="0.956055" y="4.27237" width="84.0334" height="69.6716" filterUnits="userSpaceOnUse" color-interpolation-filters="sRGB">
<feFlood flood-opacity="0" result="BackgroundImageFix"/>
<feColorMatrix in="SourceAlpha" type="matrix" values="0 0 0 0 0 0 0 0 0 0 0 0 0 0 0 0 0 0 127 0" result="hardAlpha"/>
<feOffset dy="2"/>
<feGaussianBlur stdDeviation="6"/>
<feColorMatrix type="matrix" values="0 0 0 0 0.921569 0 0 0 0 0.0862745 0 0 0 0 0.937255 0 0 0 1 0"/>
<feBlend mode="normal" in2="BackgroundImageFix" result="effect1_dropShadow_115_48"/>
<feBlend mode="normal" in="SourceGraphic" in2="effect1_dropShadow_115_48" result="shape"/>
</filter>
<clipPath id="clip0_115_48">
<rect width="84.0467" height="79.9253" fill="white" transform="translate(0.949463)"/>
</clipPath>
</defs>
</svg>
