<svg width="85" height="90" viewBox="0 0 85 90" fill="none" xmlns="http://www.w3.org/2000/svg">
<g id="Group_11_2.svg" clip-path="url(#clip0_115_55)">
<g id="Group" filter="url(#filter0_d_115_55)">
<path id="Vector" d="M41.9176 18.6925C42.5758 18.6925 43.1094 18.1215 43.1094 17.4173V11.7304C43.1094 11.0262 42.5758 10.4553 41.9176 10.4553C41.2594 10.4553 40.7258 11.0262 40.7258 11.7304V17.4173C40.7259 18.1215 41.2595 18.6925 41.9176 18.6925Z" fill="#EB16EF"/>
</g>
<g id="Group_2" filter="url(#filter1_d_115_55)">
<path id="Vector_2" d="M71.0508 54.2597L68.9454 52.0136C68.1964 51.2132 67.1982 50.7724 66.1345 50.7724C65.4544 50.7724 64.8015 50.9535 64.2229 51.2927L60.2553 47.053L60.4486 46.8465C62.0582 45.1212 62.0575 42.3174 60.4484 40.5978C59.8734 39.9815 59.1559 39.5705 58.3738 39.3976C58.4815 38.9999 58.5381 38.5834 58.5381 38.1571C58.5381 36.9727 58.1081 35.862 57.3296 35.0326C56.7545 34.4164 56.0371 34.0054 55.255 33.8324C55.3626 33.4347 55.4193 33.0183 55.4193 32.5919C55.4193 31.4073 54.9893 30.2969 54.2095 29.4662C53.6206 28.837 52.8968 28.4386 52.1366 28.2692C52.5433 26.7692 52.1958 25.0816 51.0929 23.8997C50.1747 22.9217 48.929 22.5013 47.7284 22.6375L39.8662 21.0455C38.6672 20.8021 37.1698 20.6412 36.2245 21.5635C36.1649 21.6218 36.104 21.6887 36.0442 21.7633C34.5786 21.1918 32.8693 21.5322 31.6957 22.7863C30.9171 23.6182 30.4882 24.7284 30.4882 25.9121C30.4882 26.3385 30.5446 26.7549 30.6522 27.1527C29.8709 27.3256 29.1543 27.736 28.5812 28.3503C27.8011 29.1815 27.3709 30.2903 27.3701 31.4727C27.3697 31.9001 27.4264 32.3179 27.5346 32.7168C26.753 32.8892 26.0359 33.2989 25.461 33.9132C24.6808 34.7469 24.2513 35.8576 24.2513 37.0408C24.2513 37.947 24.5041 38.8103 24.9728 39.5396C24.3811 39.7542 23.8391 40.1114 23.3852 40.5964C21.7746 42.3174 21.774 45.1213 23.3863 46.8492L23.5788 47.0543L19.6107 51.2917C18.1361 50.549 16.3191 50.8272 15.1022 52.1275L12.9955 54.375C12.2462 55.1757 11.8336 56.2438 11.8335 57.3824C11.8335 58.5211 12.2462 59.5892 12.9955 60.3901L15.6248 63.1994C16.0905 63.6971 16.8451 63.6967 17.3102 63.1985C17.7754 62.7003 17.7749 61.8928 17.3092 61.3952L14.68 58.5859C14.3816 58.2669 14.2172 57.8395 14.2172 57.3825C14.2172 56.9255 14.3816 56.4983 14.6793 56.18L16.7862 53.9324C17.3126 53.3699 18.1182 53.2861 18.7301 53.6774C18.7731 53.7466 18.823 53.8125 18.88 53.8737C18.9822 53.9831 19.0987 54.0671 19.2225 54.1285L31.3046 67.0353C31.3619 67.1691 31.4407 67.2951 31.5436 67.4052C31.6437 67.5124 31.7579 67.5954 31.8791 67.6564C32.1346 67.9655 32.2758 68.3603 32.2758 68.7813C32.2758 69.2384 32.1114 69.6656 31.813 69.9846L29.7082 72.2337C29.0863 72.8961 28.0747 72.8959 27.4547 72.2356L24.8255 69.4225C24.3601 68.9247 23.6055 68.9247 23.14 69.4225C22.6745 69.9205 22.6745 70.7278 23.14 71.2258L25.7712 74.0409C26.5456 74.866 27.5626 75.2784 28.5802 75.2784C29.5979 75.2784 30.6162 74.8653 31.3916 74.0395L33.4975 71.789C34.2469 70.9882 34.6596 69.9201 34.6596 68.7813C34.6596 67.9686 34.4483 67.1925 34.0555 66.5233L38.5214 61.7514C38.526 61.7462 38.5308 61.741 38.5356 61.7359C39.047 61.1703 40.471 61.2761 41.8482 61.3784C42.8267 61.4513 43.9175 61.5321 44.9834 61.4007L49.8738 66.6265C49.557 67.2445 49.3879 67.9421 49.3879 68.6685C49.3879 69.806 49.8005 70.8735 50.5499 71.6743L52.6561 73.9247C53.4049 74.7251 54.4031 75.1659 55.4668 75.1659C56.5304 75.1659 57.5286 74.7252 58.2776 73.9247L71.0517 60.2752C71.801 59.4745 72.2137 58.4065 72.2137 57.2678C72.2136 56.1292 71.8009 55.0611 71.0508 54.2597ZM39.4224 23.551L44.5925 24.5979L41.4979 27.9073C41.0192 27.6612 40.3631 27.2021 39.6434 26.4655C38.6582 25.4572 37.9534 24.293 37.8892 23.567C37.8891 23.5666 37.8891 23.5661 37.8891 23.5658C37.8891 23.5657 37.8891 23.5659 37.8891 23.5658C37.8846 23.5137 37.8833 23.4716 37.8839 23.4398C38.0396 23.3993 38.4536 23.3544 39.4224 23.551ZM33.38 24.5906C33.9838 23.9452 34.9218 23.8708 35.604 24.365C35.9907 26.0994 37.3735 27.6712 37.9957 28.3081C38.4568 28.78 39.9362 30.1951 41.4294 30.5841C41.6314 30.8939 41.7413 31.2632 41.7413 31.6528C41.7413 32.1549 41.5609 32.6242 41.2321 32.9756C40.9041 33.3271 40.4647 33.5206 39.9946 33.5206C39.5244 33.5206 39.0851 33.3271 38.7555 32.9741L38.7548 32.9732L33.3799 27.2333C33.0523 26.8833 32.8718 26.414 32.8718 25.9121C32.8718 25.4101 33.0524 24.9408 33.38 24.5906ZM30.2657 30.1546C30.5936 29.8033 31.0326 29.6096 31.5019 29.6096C31.9719 29.6096 32.4122 29.8036 32.7423 30.1563L37.0704 34.7774C37.7518 35.5077 37.7518 36.6961 37.0727 37.4238C36.743 37.7752 36.302 37.9686 35.8312 37.9686C35.3603 37.9686 34.9194 37.7752 34.5911 37.4253L31.3075 33.9132C31.3024 33.9077 31.2969 33.9027 31.2917 33.8972L30.2644 32.7986C29.9348 32.4465 29.7534 31.9762 29.7537 31.4746C29.7542 30.9746 29.9351 30.5068 30.2657 30.1546ZM27.1454 35.7174C27.4736 35.3669 27.9135 35.1739 28.3842 35.1739C28.8512 35.1739 29.2873 35.3642 29.614 35.7087L32.9075 39.2304C33.2359 39.5804 33.4169 40.0492 33.4169 40.5506C33.4169 41.0519 33.2359 41.5207 32.9062 41.872C32.5782 42.2224 32.1387 42.4155 31.6688 42.4155C31.1981 42.4155 30.7573 42.2219 30.4288 41.872L29.2348 40.5962C29.2346 40.5958 29.2342 40.5956 29.234 40.5953L27.1456 38.3637C26.8164 38.0119 26.6351 37.5419 26.6351 37.0406C26.6351 36.5393 26.8164 36.0692 27.1454 35.7174ZM25.0698 42.4006C25.3993 42.0484 25.8398 41.8544 26.31 41.8544C26.78 41.8544 27.2204 42.0483 27.5498 42.4002L28.7454 43.6778C29.074 44.0278 29.2548 44.4966 29.2548 44.9979C29.2548 45.4994 29.0739 45.968 28.743 46.3207C28.415 46.6721 27.9756 46.8657 27.5056 46.8657C27.0354 46.8657 26.596 46.6722 26.2657 46.3182L26.116 46.1587C26.114 46.1566 26.1124 46.1543 26.1106 46.1522C26.1083 46.15 26.1059 46.1479 26.1036 46.1456L25.0709 45.0451C24.3894 44.3143 24.3888 43.1282 25.0698 42.4006ZM49.3578 56.8918C48.8926 56.3935 48.138 56.3931 47.6724 56.8907L46.612 58.0237C45.6044 59.1016 43.7788 58.9659 42.0132 58.8349C40.096 58.6923 38.1133 58.5452 36.8303 59.9544L32.4404 64.6452L21.4625 52.9178L25.3475 48.7691C25.9896 49.1902 26.7306 49.4159 27.5059 49.4159C28.6134 49.4159 29.652 48.9566 30.4278 48.1251C31.2087 47.2931 31.6388 46.1826 31.6388 44.9981C31.6388 44.987 31.6381 44.9762 31.6381 44.9652C31.6485 44.9653 31.6587 44.9659 31.669 44.9659C32.7751 44.9659 33.8128 44.508 34.5896 43.6779C35.3706 42.8459 35.8008 41.7352 35.8008 40.5508C35.8008 40.5399 35.8 40.529 35.8 40.5179C35.8105 40.5179 35.8209 40.5187 35.8314 40.5187C36.9371 40.5187 37.9754 40.0612 38.7575 39.228C39.5693 38.3581 39.9709 37.2129 39.9631 36.07C39.9738 36.0701 39.9844 36.0707 39.9951 36.0707C41.1027 36.0706 42.1411 35.6114 42.9181 34.7787C43.6966 33.9467 44.1255 32.8367 44.1255 31.6528C44.1255 30.825 43.9151 30.0336 43.5228 29.3479L46.9279 25.7067C47.1816 25.4363 47.4945 25.2667 47.8224 25.1966C47.858 25.1926 47.8929 25.1865 47.9276 25.1792C48.4538 25.1015 49.0064 25.2753 49.4087 25.7039C50.0903 26.4344 50.0903 27.6227 49.4112 28.3504L48.3742 29.4553C48.3707 29.459 48.367 29.4623 48.3636 29.466L47.1692 30.7416C46.7034 31.2392 46.7029 32.0466 47.1681 32.5448C47.6335 33.0432 48.3879 33.0435 48.8535 32.5459L49.8947 31.4336C49.8945 31.4338 49.895 31.4334 49.8947 31.4336L50.0528 31.265C50.7363 30.5406 51.8435 30.5421 52.5263 31.2715C52.8547 31.6215 53.0357 32.0903 53.0357 32.5917C53.0357 33.0929 52.8547 33.5618 52.5236 33.9144L51.4807 35.0325C51.4806 35.0326 51.4808 35.0323 51.4807 35.0325L50.2859 36.3056C49.8196 36.8025 49.818 37.6099 50.2825 38.1087C50.747 38.6077 51.5016 38.6092 51.968 38.1123L53.1678 36.8341C53.4957 36.4826 53.9351 36.2891 54.4052 36.2891C54.8754 36.2891 55.3149 36.4826 55.6452 36.8366C55.9736 37.1866 56.1545 37.6554 56.1545 38.1568C56.1545 38.6581 55.9736 39.1269 55.6432 39.4789L53.5639 41.7043C53.0987 42.2024 53.0988 43.0096 53.5642 43.5074C53.797 43.7563 54.1018 43.8807 54.4069 43.8807C54.7119 43.8807 55.017 43.756 55.2497 43.507L56.2687 42.4164C56.2746 42.4104 56.2808 42.4053 56.2866 42.399C56.6145 42.0476 57.0539 41.8542 57.524 41.8542C57.9942 41.8542 58.4336 42.0476 58.7627 42.4003C59.4435 43.128 59.4429 44.3142 58.7627 45.0433L57.7266 46.1504C57.7262 46.1508 57.7257 46.1512 57.7254 46.1516C57.725 46.152 57.7246 46.1525 57.7244 46.1528L56.0799 47.91C55.6142 48.4077 55.6137 49.2151 56.0788 49.7133C56.3116 49.9626 56.6169 50.0874 56.9221 50.0874C57.2268 50.0874 57.5316 49.9629 57.7643 49.7144L58.5687 48.8549L62.424 52.9746L51.447 64.7038L47.514 60.5012C47.7882 60.3125 48.0506 60.0907 48.2969 59.8272L49.3566 58.6948C49.8225 58.1975 49.823 57.39 49.3578 56.8918ZM69.3671 58.4709L56.5929 72.1204C56.2942 72.4397 55.8942 72.6156 55.4667 72.6156C55.0393 72.6156 54.6393 72.4397 54.3403 72.1203L52.2342 69.8699C51.9357 69.5511 51.7713 69.1245 51.7713 68.6685C51.7713 68.2127 51.9357 67.7861 52.2342 67.4672L65.0083 53.8175C65.3072 53.4981 65.707 53.3222 66.1346 53.3222C66.5621 53.3222 66.9621 53.4981 67.2617 53.8184L69.3672 56.0645C69.6656 56.3834 69.83 56.8106 69.83 57.2676C69.8299 57.7248 69.6655 58.1521 69.3671 58.4709Z" fill="#EB16EF"/>
</g>
<g id="Group_3" filter="url(#filter2_d_115_55)">
<path id="Vector_3" d="M26.0918 17.6172C26.3245 17.8656 26.6291 17.9897 26.9337 17.9897C27.2391 17.9897 27.5445 17.8648 27.7773 17.6153C28.2423 17.1169 28.2416 16.3096 27.7756 15.8121L23.4326 11.1751C22.9669 10.6776 22.2122 10.6784 21.7472 11.1769C21.2822 11.6754 21.2829 12.4826 21.7489 12.98L26.0918 17.6172Z" fill="#EB16EF"/>
</g>
<g id="Group_4" filter="url(#filter3_d_115_55)">
<path id="Vector_4" d="M56.9017 17.9896C57.2066 17.9896 57.5114 17.8653 57.7441 17.6167L62.0837 12.9796C62.5494 12.482 62.5499 11.6747 62.0847 11.1765C61.6196 10.6783 60.865 10.6777 60.3992 11.1754L56.0595 15.8126C55.5938 16.3101 55.5934 17.1175 56.0585 17.6157C56.2913 17.8651 56.5965 17.9896 56.9017 17.9896Z" fill="#EB16EF"/>
</g>
</g>
<defs>
<filter id="filter0_d_115_55" x="28.7258" y="0.455322" width="26.3835" height="32.2371" filterUnits="userSpaceOnUse" color-interpolation-filters="sRGB">
<feFlood flood-opacity="0" result="BackgroundImageFix"/>
<feColorMatrix in="SourceAlpha" type="matrix" values="0 0 0 0 0 0 0 0 0 0 0 0 0 0 0 0 0 0 127 0" result="hardAlpha"/>
<feOffset dy="2"/>
<feGaussianBlur stdDeviation="6"/>
<feColorMatrix type="matrix" values="0 0 0 0 0.921569 0 0 0 0 0.0862745 0 0 0 0 0.937255 0 0 0 1 0"/>
<feBlend mode="normal" in2="BackgroundImageFix" result="effect1_dropShadow_115_55"/>
<feBlend mode="normal" in="SourceGraphic" in2="effect1_dropShadow_115_55" result="shape"/>
</filter>
<filter id="filter1_d_115_55" x="-0.166504" y="10.8566" width="84.3801" height="78.4218" filterUnits="userSpaceOnUse" color-interpolation-filters="sRGB">
<feFlood flood-opacity="0" result="BackgroundImageFix"/>
<feColorMatrix in="SourceAlpha" type="matrix" values="0 0 0 0 0 0 0 0 0 0 0 0 0 0 0 0 0 0 127 0" result="hardAlpha"/>
<feOffset dy="2"/>
<feGaussianBlur stdDeviation="6"/>
<feColorMatrix type="matrix" values="0 0 0 0 0.921569 0 0 0 0 0.0862745 0 0 0 0 0.937255 0 0 0 1 0"/>
<feBlend mode="normal" in2="BackgroundImageFix" result="effect1_dropShadow_115_55"/>
<feBlend mode="normal" in="SourceGraphic" in2="effect1_dropShadow_115_55" result="shape"/>
</filter>
<filter id="filter2_d_115_55" x="9.39893" y="0.80249" width="30.7266" height="31.1872" filterUnits="userSpaceOnUse" color-interpolation-filters="sRGB">
<feFlood flood-opacity="0" result="BackgroundImageFix"/>
<feColorMatrix in="SourceAlpha" type="matrix" values="0 0 0 0 0 0 0 0 0 0 0 0 0 0 0 0 0 0 127 0" result="hardAlpha"/>
<feOffset dy="2"/>
<feGaussianBlur stdDeviation="6"/>
<feColorMatrix type="matrix" values="0 0 0 0 0.921569 0 0 0 0 0.0862745 0 0 0 0 0.937255 0 0 0 1 0"/>
<feBlend mode="normal" in2="BackgroundImageFix" result="effect1_dropShadow_115_55"/>
<feBlend mode="normal" in="SourceGraphic" in2="effect1_dropShadow_115_55" result="shape"/>
</filter>
<filter id="filter3_d_115_55" x="43.71" y="0.80249" width="30.7234" height="31.1871" filterUnits="userSpaceOnUse" color-interpolation-filters="sRGB">
<feFlood flood-opacity="0" result="BackgroundImageFix"/>
<feColorMatrix in="SourceAlpha" type="matrix" values="0 0 0 0 0 0 0 0 0 0 0 0 0 0 0 0 0 0 127 0" result="hardAlpha"/>
<feOffset dy="2"/>
<feGaussianBlur stdDeviation="6"/>
<feColorMatrix type="matrix" values="0 0 0 0 0.921569 0 0 0 0 0.0862745 0 0 0 0 0.937255 0 0 0 1 0"/>
<feBlend mode="normal" in2="BackgroundImageFix" result="effect1_dropShadow_115_55"/>
<feBlend mode="normal" in="SourceGraphic" in2="effect1_dropShadow_115_55" result="shape"/>
</filter>
<clipPath id="clip0_115_55">
<rect width="84.0467" height="89.9159" fill="white"/>
</clipPath>
</defs>
</svg>
