<svg width="45" height="45" viewBox="0 0 45 45" fill="none" xmlns="http://www.w3.org/2000/svg">
<path fill-rule="evenodd" clip-rule="evenodd" d="M22.5 45C34.9263 45 45 34.9263 45 22.5C45 10.0737 34.9263 0 22.5 0C10.0737 0 0 10.0737 0 22.5C0 34.9263 10.0737 45 22.5 45ZM32.3896 14.3748C32.5633 12.4038 30.4817 13.2156 30.4817 13.2156C28.9449 13.8519 27.36 14.4981 25.758 15.1515C20.79 17.1778 15.6582 19.2713 11.2864 21.3318C8.91585 22.2012 10.3036 23.0706 10.3036 23.0706L14.0616 24.2303C15.7963 24.7523 16.7211 24.1722 16.7211 24.1722L24.8157 18.6651C27.7065 16.6941 27.0126 18.3172 26.3187 19.0129L20.2482 24.8099C19.323 25.6217 19.7856 26.3174 20.1902 26.6652C21.3377 27.6773 24.1592 29.529 25.3908 30.3372C25.7112 30.5474 25.9241 30.6873 25.9722 30.7233C26.2611 30.9551 27.8222 31.9986 28.863 31.7669C29.9039 31.5347 30.0195 30.2013 30.0195 30.2013L31.4069 21.0996C31.6148 19.5197 31.8537 18.0009 32.0445 16.7877C32.2245 15.642 32.3617 14.7695 32.3896 14.3748Z" fill="white"/>
</svg>
