<svg width="33" height="32" viewBox="0 0 33 32" fill="none" xmlns="http://www.w3.org/2000/svg">
<path fill-rule="evenodd" clip-rule="evenodd" d="M16.3091 31.36C25.3162 31.36 32.6181 24.3397 32.6181 15.68C32.6181 7.02025 25.3162 0 16.3091 0C7.30189 0 0 7.02025 0 15.68C0 24.3397 7.30189 31.36 16.3091 31.36ZM23.4775 10.0176C23.6034 8.64407 22.0945 9.2098 22.0945 9.2098C20.9806 9.65323 19.8318 10.1036 18.6706 10.5589C15.0696 11.971 11.3498 13.4299 8.18095 14.8659C6.46263 15.4718 7.46857 16.0776 7.46857 16.0776L10.1925 16.8858C11.4499 17.2496 12.1202 16.8453 12.1202 16.8453L17.9876 13.0075C20.083 11.6339 19.58 12.7651 19.077 13.2499L14.6768 17.2897C14.0062 17.8554 14.3415 18.3403 14.6348 18.5827C15.4665 19.288 17.5117 20.5784 18.4044 21.1416C18.6367 21.2881 18.791 21.3856 18.8259 21.4107C19.0353 21.5722 20.1668 22.2995 20.9213 22.138C21.6757 21.9761 21.7595 21.0469 21.7595 21.0469L22.7652 14.7041C22.9159 13.603 23.0891 12.5446 23.2274 11.6992C23.3578 10.9007 23.4573 10.2927 23.4775 10.0176Z" fill="white"/>
</svg>
