<svg width="63" height="54" viewBox="0 0 63 54" fill="none" xmlns="http://www.w3.org/2000/svg">
<path id="Vector" fill-rule="evenodd" clip-rule="evenodd" d="M31.0933 54C48.2655 54 62.1866 41.9116 62.1866 27C62.1866 12.0884 48.2655 0 31.0933 0C13.9211 0 0 12.0884 0 27C0 41.9116 13.9211 54 31.0933 54ZM44.76 17.2498C44.9636 15.2439 42.9255 15.6398 42.3015 15.8064C42.1814 15.8385 42.0649 15.8797 41.9479 15.9218C39.8791 16.665 37.7485 17.4193 35.5956 18.1818C28.7302 20.6134 21.6384 23.1255 15.597 25.5982C15.1955 25.726 14.872 25.8539 14.6134 25.9798C13.1949 26.6708 15.0089 27.8911 16.5331 28.2995L19.4321 29.0763C21.1291 29.5197 22.2652 29.3004 22.7841 29.1345C23.0055 29.0637 23.2074 28.9475 23.4075 28.8293L34.2934 22.3981C38.2883 20.0329 37.3294 21.9807 36.3704 22.8155L27.9815 29.7718C26.7029 30.746 27.3422 31.5808 27.9013 31.9982C29.487 33.2127 33.3861 35.4348 35.0882 36.4046C35.5309 36.6568 35.8251 36.8248 35.8916 36.868C36.2908 37.1461 38.4481 38.3983 39.8865 38.1202C40.6743 37.9676 41.0785 37.4186 41.2831 36.9532C41.4821 36.5002 41.5275 35.9976 41.613 35.5103L43.4019 25.3195C43.6892 23.4236 44.0194 21.6011 44.2831 20.1452C44.5318 18.7704 44.7215 17.7233 44.76 17.2498Z" fill="white"/>
</svg>
