<svg width="45" height="46" viewBox="0 0 45 46" fill="none" xmlns="http://www.w3.org/2000/svg">
<path fill-rule="evenodd" clip-rule="evenodd" d="M22.5 45.5161C34.9263 45.5161 45 35.4424 45 23.0161C45 10.5898 34.9263 0.516113 22.5 0.516113C10.0737 0.516113 0 10.5898 0 23.0161C0 35.4424 10.0737 45.5161 22.5 45.5161ZM20.214 11.1298C20.5435 11.0741 20.8716 11.0108 21.1981 10.9399C21.3439 10.9039 21.9789 10.8711 22.6084 10.8666C23.5296 10.8607 23.9593 10.8967 24.8089 11.0511C28.3383 11.6937 31.072 13.4901 33.1213 16.5118C34.0168 17.8321 34.7427 19.696 34.951 21.2098C35.0919 22.234 35.0703 24.7009 34.9132 25.5442C34.7454 26.4469 34.2369 27.9571 33.8225 28.7842C32.8631 30.6967 31.3222 32.445 29.6023 33.5713C29.07 33.9196 28.2037 34.4007 27.8752 34.5298C27.7294 34.587 27.5742 34.6608 27.5305 34.6936C27.3564 34.8241 26.0086 35.2296 25.1289 35.4154C24.3157 35.5873 24.0093 35.6134 22.7533 35.6157C21.4654 35.6188 21.2067 35.5968 20.3256 35.4109C18.5872 35.0446 17.1666 34.474 16.0105 33.6784C15.7464 33.4966 15.534 33.5151 14.0274 33.8499C12.3831 34.2153 11.9709 34.2729 11.8314 34.1568C11.6595 34.0146 11.6806 33.7968 12.0114 32.2879C12.3484 30.7539 12.4335 30.3912 12.3273 30.0978C12.2904 29.9956 12.2301 29.9016 12.1486 29.7688C10.9368 27.7915 10.3558 25.6909 10.35 23.2618C10.3446 21.1243 10.7402 19.4143 11.6541 17.6251C11.9813 16.9843 12.555 16.0587 12.8511 15.6933C13.1899 15.2761 14.9818 13.5085 15.2415 13.3353C16.3269 12.6135 16.5766 12.4654 17.3664 12.0798C18.2259 11.6595 19.3761 11.2756 20.2145 11.1303L20.214 11.1298ZM18.2025 21.1783C17.7754 20.047 17.6162 19.687 17.4803 19.5516C17.3381 19.4089 17.217 19.3932 16.0906 19.3716C14.7528 19.3455 14.6943 19.3617 14.5624 19.7946C14.5089 19.9701 14.8486 21.3034 14.9818 21.4402C15.0234 21.4871 15.0481 21.5465 15.0521 21.609C15.0521 21.7035 15.3468 22.3857 15.691 23.0863C15.8692 23.4495 16.9466 25.2841 17.0208 25.3516C17.0438 25.3728 17.2669 25.663 17.5167 25.9965C18.2025 26.9131 19.2145 27.81 20.1096 28.2937C20.9542 28.7505 22.3164 29.0047 23.2789 28.8841C23.9629 28.7986 24.0057 28.723 24.0057 27.5877C24.0057 26.1103 24.1744 25.884 24.9804 26.2813C25.3089 26.4433 26.4442 27.508 27.1926 28.3558C27.3802 28.5687 27.6084 28.782 27.6997 28.8301C27.873 28.9219 30.2616 28.9584 30.4853 28.8724C30.7085 28.7869 30.7175 28.3459 30.5046 27.9103C30.2589 27.4077 29.4264 26.3668 28.508 25.4128C28.022 24.9084 27.7992 24.6208 27.7992 24.498C27.7992 24.345 28.1776 23.6443 28.3216 23.5305C28.3698 23.4927 28.7519 22.9279 28.8986 22.6786C28.9409 22.6066 29.1847 22.1971 29.4403 21.7683C30.0991 20.6635 30.2301 20.3823 30.2792 19.9674C30.3188 19.6344 30.3048 19.5894 30.1284 19.4737C29.9633 19.3657 29.7585 19.35 28.7586 19.3711C27.6381 19.3941 27.5747 19.404 27.3893 19.5781C27.2826 19.6785 27.1737 19.8324 27.148 19.9192C27.0724 20.1735 26.2719 21.7305 26.1581 21.8443C26.1009 21.9015 26.0545 21.9816 26.0545 22.023C26.0545 22.1494 25.3732 23.0926 25.002 23.481C24.5956 23.9053 24.3648 24.021 24.1524 23.9071C24.0129 23.8329 24.0057 23.7276 24.0043 21.8016C24.0034 20.3197 23.9773 19.7239 23.9071 19.5849L23.8113 19.3954H20.4075L20.295 19.5966C20.187 19.7878 20.1964 19.822 20.4813 20.2797L20.781 20.7612V22.6962C20.781 24.6267 20.781 24.6312 20.6158 24.6546C20.3908 24.6861 19.9386 24.2658 19.5066 23.6214C19.1479 23.0868 18.3789 21.6463 18.2025 21.1783Z" fill="white"/>
</svg>
