<svg width="41" height="40" viewBox="0 0 41 40" fill="none" xmlns="http://www.w3.org/2000/svg">
<g filter="url(#filter0_d_5_17)">
<path fill-rule="evenodd" clip-rule="evenodd" d="M20.3091 31.36C29.3162 31.36 36.6181 24.3397 36.6181 15.68C36.6181 7.02025 29.3162 0 20.3091 0C11.3019 0 4 7.02025 4 15.68C4 24.3397 11.3019 31.36 20.3091 31.36ZM18.6521 7.39657C18.8909 7.35775 19.1287 7.31362 19.3654 7.26423C19.4711 7.23914 19.9313 7.21625 20.3877 7.21311C21.0554 7.20903 21.3669 7.23412 21.9827 7.34169C24.5409 7.78951 26.5225 9.0414 28.0079 11.1472C28.657 12.0673 29.1831 13.3663 29.3342 14.4212C29.4363 15.135 29.4206 16.8541 29.3068 17.4418C29.1851 18.0709 28.8165 19.1233 28.5161 19.6997C27.8207 21.0325 26.7038 22.2509 25.4572 23.0358C25.0713 23.2785 24.4434 23.6138 24.2053 23.7038C24.0996 23.7436 23.9871 23.795 23.9554 23.8179C23.8292 23.9089 22.8523 24.1914 22.2146 24.3209C21.6252 24.4407 21.4031 24.4589 20.4927 24.4605C19.5592 24.4627 19.3716 24.4473 18.733 24.3178C17.4729 24.0625 16.4432 23.6649 15.6052 23.1104C15.4137 22.9837 15.2598 22.9966 14.1677 23.2299C12.9759 23.4846 12.6771 23.5247 12.576 23.4438C12.4514 23.3447 12.4667 23.1929 12.7064 22.1414C12.9507 21.0723 13.0124 20.8196 12.9354 20.6151C12.9087 20.5439 12.865 20.4784 12.8059 20.3859C11.9275 19.0079 11.5064 17.544 11.5022 15.8512C11.4983 14.3616 11.785 13.1699 12.4474 11.9231C12.6846 11.4765 13.1005 10.8314 13.3151 10.5768C13.5607 10.2861 14.8595 9.05426 15.0478 8.93352C15.8345 8.43051 16.0155 8.32733 16.588 8.05858C17.211 7.76567 18.0447 7.49817 18.6524 7.39688L18.6521 7.39657ZM17.194 14.3993C16.8845 13.6109 16.769 13.36 16.6705 13.2656C16.5674 13.1662 16.4797 13.1552 15.6633 13.1401C14.6935 13.122 14.6511 13.1332 14.5555 13.4349C14.5167 13.5572 14.763 14.4864 14.8595 14.5818C14.8897 14.6144 14.9076 14.6558 14.9104 14.6994C14.9104 14.7652 15.1241 15.2406 15.3736 15.7289C15.5028 15.982 16.2837 17.2605 16.3375 17.3076C16.3541 17.3223 16.5159 17.5246 16.6969 17.757C17.194 18.3958 17.9276 19.0208 18.5764 19.3579C19.1886 19.6762 20.176 19.8534 20.8737 19.7693C21.3695 19.7098 21.4005 19.6571 21.4005 18.8659C21.4005 17.8363 21.5228 17.6786 22.107 17.9555C22.3451 18.0684 23.168 18.8103 23.7105 19.4012C23.8465 19.5495 24.0119 19.6981 24.0781 19.7317C24.2037 19.7957 25.935 19.8211 26.0971 19.7612C26.2589 19.7016 26.2655 19.3943 26.1112 19.0907C25.9331 18.7404 25.3296 18.0151 24.6639 17.3502C24.3116 16.9987 24.1502 16.7983 24.1502 16.7127C24.1502 16.6061 24.4245 16.1178 24.5289 16.0384C24.5638 16.0121 24.8407 15.6185 24.947 15.4448C24.9777 15.3946 25.1545 15.1092 25.3398 14.8104C25.8173 14.0405 25.9122 13.8445 25.9478 13.5554C25.9765 13.3233 25.9663 13.2919 25.8385 13.2113C25.7188 13.1361 25.5704 13.1251 24.8456 13.1398C24.0334 13.1558 23.9874 13.1627 23.853 13.2841C23.7757 13.354 23.6968 13.4613 23.6782 13.5218C23.6234 13.699 23.0431 14.784 22.9606 14.8634C22.9192 14.9032 22.8856 14.959 22.8856 14.9879C22.8856 15.076 22.3917 15.7333 22.1226 16.0039C21.8281 16.2997 21.6608 16.3803 21.5068 16.3009C21.4057 16.2492 21.4005 16.1758 21.3995 14.8336C21.3988 13.8009 21.3799 13.3857 21.329 13.2888L21.2596 13.1568H18.7923L18.7108 13.2969C18.6325 13.4302 18.6393 13.4541 18.8458 13.773L19.063 14.1085V15.457C19.063 16.8024 19.063 16.8055 18.9433 16.8218C18.7802 16.8438 18.4524 16.5509 18.1393 16.1018C17.8793 15.7292 17.3219 14.7254 17.194 14.3993Z" fill="white"/>
</g>
<defs>
<filter id="filter0_d_5_17" x="0" y="0" width="40.6182" height="39.36" filterUnits="userSpaceOnUse" color-interpolation-filters="sRGB">
<feFlood flood-opacity="0" result="BackgroundImageFix"/>
<feColorMatrix in="SourceAlpha" type="matrix" values="0 0 0 0 0 0 0 0 0 0 0 0 0 0 0 0 0 0 127 0" result="hardAlpha"/>
<feOffset dy="4"/>
<feGaussianBlur stdDeviation="2"/>
<feComposite in2="hardAlpha" operator="out"/>
<feColorMatrix type="matrix" values="0 0 0 0 0 0 0 0 0 0 0 0 0 0 0 0 0 0 0.25 0"/>
<feBlend mode="normal" in2="BackgroundImageFix" result="effect1_dropShadow_5_17"/>
<feBlend mode="normal" in="SourceGraphic" in2="effect1_dropShadow_5_17" result="shape"/>
</filter>
</defs>
</svg>
