<svg width="45" height="45" viewBox="0 0 45 45" fill="none" xmlns="http://www.w3.org/2000/svg">
<path fill-rule="evenodd" clip-rule="evenodd" d="M22.5 45C34.9264 45 45 34.9264 45 22.5C45 10.0736 34.9264 0 22.5 0C10.0736 0 0 10.0736 0 22.5C0 34.9264 10.0736 45 22.5 45ZM31.3932 13.0468C29.0777 10.7284 25.9983 9.45121 22.7174 9.45C15.9577 9.45 10.4556 14.9513 10.4531 21.7135C10.4523 23.8751 11.017 25.9851 12.0901 27.8446L10.35 34.2L16.8515 32.4947C18.6427 33.472 20.6598 33.9868 22.7121 33.9876H22.717C29.4763 33.9876 34.9785 28.4854 34.9813 21.7237C34.9834 18.4462 33.709 15.3651 31.3932 13.0468ZM28.3089 24.2815C28.0023 24.128 26.496 23.3869 26.2148 23.2846C25.9341 23.1822 25.7295 23.1311 25.5253 23.438C25.321 23.745 24.7338 24.4349 24.555 24.6395C24.3761 24.8441 24.1973 24.8695 23.8912 24.7161C23.8411 24.691 23.7727 24.6613 23.6884 24.6248C23.2569 24.4376 22.4057 24.0685 21.4268 23.1949C20.5158 22.3822 19.9008 21.3788 19.7219 21.0722C19.5431 20.7653 19.7027 20.5996 19.8562 20.4469C19.9481 20.3552 20.0538 20.2265 20.1594 20.0979C20.2121 20.0337 20.2648 19.9696 20.3157 19.91C20.4455 19.7584 20.502 19.6432 20.5786 19.4872C20.5923 19.4592 20.6067 19.4299 20.6222 19.3989C20.7245 19.1943 20.6734 19.0154 20.5969 18.862C20.5457 18.7595 20.2553 18.0525 19.9919 17.4115C19.861 17.0928 19.7367 16.7904 19.652 16.5866C19.4323 16.0591 19.2097 16.0605 19.0311 16.0616C19.0074 16.0618 18.9844 16.0619 18.9624 16.0608C18.7839 16.0518 18.5793 16.0501 18.3751 16.0501C18.1709 16.0501 17.839 16.1266 17.5579 16.4336C17.5398 16.4534 17.5195 16.475 17.4975 16.4985C17.1782 16.8394 16.4853 17.5792 16.4853 18.9901C16.4853 20.4948 17.5779 21.9487 17.7356 22.1585L17.7367 22.16C17.7467 22.1733 17.7645 22.1989 17.79 22.2354C18.1558 22.7602 20.0977 25.5461 22.9716 26.7872C23.7029 27.1031 24.2734 27.2914 24.7186 27.4325C25.4528 27.6658 26.1207 27.6331 26.649 27.5541C27.2379 27.4661 28.4619 26.813 28.7172 26.0972C28.9726 25.3815 28.9726 24.7676 28.8961 24.6399C28.8344 24.5366 28.6895 24.4665 28.4749 24.3628C28.4235 24.3379 28.368 24.3111 28.3089 24.2815Z" fill="white"/>
</svg>
