<svg width="33" height="32" viewBox="0 0 33 32" fill="none" xmlns="http://www.w3.org/2000/svg">
<path fill-rule="evenodd" clip-rule="evenodd" d="M16.4616 31.36C25.4689 31.36 32.7707 24.3398 32.7707 15.68C32.7707 7.02018 25.4689 0 16.4616 0C7.45441 0 0.152588 7.02018 0.152588 15.68C0.152588 24.3398 7.45441 31.36 16.4616 31.36ZM22.9078 9.09214C21.2295 7.47653 18.9973 6.58644 16.6193 6.5856C11.7195 6.5856 7.73128 10.4194 7.72952 15.1319C7.72893 16.6383 8.13825 18.1087 8.91603 19.4046L7.65475 23.8336L12.3673 22.6452C13.6657 23.3263 15.1278 23.685 16.6154 23.6856H16.619C21.5184 23.6856 25.5066 19.8512 25.5087 15.139C25.5102 12.8549 24.5865 10.7077 22.9078 9.09214ZM20.6722 16.9215C20.45 16.8145 19.3581 16.298 19.1543 16.2268C18.9508 16.1554 18.8025 16.1198 18.6545 16.3337C18.5065 16.5476 18.0808 17.0284 17.9512 17.171C17.8216 17.3136 17.6919 17.3313 17.47 17.2243C17.4337 17.2069 17.3842 17.1862 17.3231 17.1607C17.0103 17.0303 16.3933 16.773 15.6837 16.1643C15.0234 15.5979 14.5776 14.8986 14.448 14.685C14.3183 14.4711 14.434 14.3556 14.5453 14.2492C14.6119 14.1853 14.6885 14.0956 14.7651 14.006C14.8032 13.9613 14.8414 13.9166 14.8784 13.8751C14.9725 13.7694 15.0134 13.6891 15.0689 13.5804C15.0789 13.5609 15.0893 13.5405 15.1006 13.5189C15.1747 13.3763 15.1376 13.2516 15.0822 13.1447C15.0451 13.0733 14.8346 12.5806 14.6437 12.1339C14.5488 11.9118 14.4587 11.701 14.3972 11.559C14.238 11.1914 14.0767 11.1924 13.9472 11.1931C13.93 11.1933 13.9134 11.1934 13.8974 11.1926C13.7681 11.1863 13.6198 11.1852 13.4717 11.1852C13.3237 11.1852 13.0832 11.2385 12.8794 11.4524C12.8663 11.4662 12.8516 11.4812 12.8356 11.4976C12.6042 11.7352 12.1019 12.2507 12.1019 13.234C12.1019 14.2826 12.8939 15.2958 13.0082 15.442L13.009 15.443C13.0162 15.4523 13.0291 15.4702 13.0476 15.4956C13.3128 15.8613 14.7203 17.8028 16.8035 18.6677C17.3336 18.8878 17.7471 19.019 18.0698 19.1174C18.602 19.28 19.0861 19.2572 19.469 19.2021C19.8959 19.1408 20.7831 18.6857 20.9682 18.1868C21.1533 17.6881 21.1533 17.2603 21.0979 17.1713C21.0531 17.0993 20.9481 17.0505 20.7925 16.9781C20.7553 16.9608 20.7151 16.9421 20.6722 16.9215Z" fill="white"/>
</svg>
