<svg width="59" height="54" viewBox="0 0 59 54" fill="none" xmlns="http://www.w3.org/2000/svg">
<path id="Vector" fill-rule="evenodd" clip-rule="evenodd" d="M29.4298 54C45.5474 54 58.6135 41.9116 58.6135 27C58.6135 12.0884 45.5474 0 29.4298 0C13.3122 0 0.246033 12.0884 0.246033 27C0.246033 41.9116 13.3122 54 29.4298 54ZM26.465 12.7367C26.4649 12.7366 26.4649 12.7364 26.4651 12.7364C26.8923 12.6696 27.3178 12.5936 27.7412 12.5086C27.9303 12.4654 28.7539 12.4259 29.5704 12.4205C30.7652 12.4135 31.3226 12.4567 32.4246 12.6419C37.0024 13.4131 40.5482 15.5687 43.2062 19.1948C44.3678 20.7792 45.3092 23.0159 45.5795 24.8324C45.7622 26.0615 45.7341 29.0218 45.5304 30.0337C45.3127 31.117 44.6532 32.9292 44.1156 33.9217C42.8712 36.2167 40.8727 38.3146 38.6419 39.6662C37.9514 40.0842 36.8279 40.6615 36.4018 40.8164C36.2127 40.885 36.0113 40.9736 35.9547 41.013C35.7288 41.1696 33.9807 41.6561 32.8396 41.8792C31.7849 42.0854 31.3874 42.1168 29.7584 42.1195C28.0879 42.1232 27.7523 42.0968 26.6095 41.8738C24.3547 41.4342 22.5121 40.7495 21.0126 39.7948C20.67 39.5766 20.3945 39.5987 18.4403 40.0005C16.3076 40.439 15.7729 40.5081 15.592 40.3688C15.369 40.1981 15.3965 39.9368 15.8255 38.1262C16.2627 36.2853 16.373 35.8501 16.2352 35.498C16.1874 35.3754 16.1091 35.2625 16.0035 35.1032C14.4317 32.7305 13.6781 30.2098 13.6706 27.2948C13.6635 24.7298 14.1766 22.6778 15.362 20.5308C15.7864 19.7618 16.5306 18.6511 16.9146 18.2126C17.3541 17.712 19.6783 15.5909 20.0151 15.383C21.4229 14.5168 21.7469 14.3392 22.7712 13.8764C23.8859 13.3721 25.3775 12.9115 26.4649 12.737C26.4651 12.737 26.4651 12.7368 26.465 12.7367ZM23.8557 24.7946C23.3018 23.4371 23.0951 23.0051 22.9189 22.8425C22.7344 22.6714 22.5774 22.6525 21.1165 22.6265C19.3812 22.5952 19.3053 22.6147 19.1343 23.1341C19.0649 23.3447 19.5055 24.9448 19.6783 25.1089C19.7322 25.1651 19.7643 25.2364 19.7694 25.3114C19.7694 25.4248 20.1517 26.2435 20.5982 27.0842C20.8293 27.52 22.2266 29.7216 22.3229 29.8026C22.3527 29.828 22.6422 30.1763 22.9662 30.5764C23.8557 31.6764 25.1684 32.7526 26.3293 33.3331C27.4248 33.8812 29.1916 34.1863 30.4401 34.0416C31.3273 33.939 31.3827 33.8483 31.3827 32.4859C31.3827 30.713 31.6016 30.4414 32.647 30.9182C33.0731 31.1126 34.5457 32.3903 35.5163 33.4076C35.7597 33.6631 36.0556 33.919 36.1741 33.9768C36.3988 34.087 39.497 34.1307 39.7871 34.0276C40.0766 33.925 40.0883 33.3958 39.8122 32.873C39.4935 32.2699 38.4137 31.0208 37.2224 29.876C36.592 29.2707 36.3031 28.9256 36.3031 28.7782C36.3031 28.5946 36.794 27.7538 36.9808 27.6172C37.0432 27.5719 37.5388 26.8942 37.729 26.595C37.7839 26.5086 38.1003 26.0172 38.4318 25.5026C39.2863 24.1769 39.4561 23.8394 39.5198 23.3415C39.5711 22.9419 39.553 22.8879 39.3242 22.7491C39.11 22.6195 38.8444 22.6006 37.5475 22.626C36.0942 22.6535 36.0119 22.6654 35.7714 22.8744C35.6331 22.9948 35.4918 23.1795 35.4585 23.2837C35.3605 23.5888 34.3221 25.4572 34.1745 25.5938C34.1003 25.6624 34.0402 25.7585 34.0402 25.8082C34.0402 25.96 33.1565 27.0918 32.675 27.5578C32.1479 28.067 31.8485 28.2058 31.573 28.0692C31.3921 27.9801 31.3827 27.8537 31.381 25.5425C31.3798 23.7643 31.346 23.0494 31.2549 22.8825C31.1783 22.7423 31.0312 22.6552 30.8715 22.6552H26.9977C26.8227 22.6552 26.6603 22.7467 26.5698 22.8965C26.4297 23.126 26.4419 23.1671 26.8114 23.7163C27.0648 24.0929 27.2001 24.5365 27.2001 24.9905V26.6161C27.2001 28.9327 27.2001 28.9381 26.9859 28.9661C26.6941 29.0039 26.1075 28.4996 25.5472 27.7263C25.082 27.0848 24.0845 25.3562 23.8557 24.7946Z" fill="white"/>
</svg>
